<svg xmlns="http://www.w3.org/2000/svg" enable-background="new 0 0 47.5 47.5" viewBox="0 0 47.5 47.5"><defs><clipPath id="a" clipPathUnits="userSpaceOnUse"><path d="M 0,38 38,38 38,0 0,0 0,38 Z"/></clipPath></defs><g clip-path="url(#a)" transform="matrix(1.25 0 0 -1.25 0 47.5)"><path fill="#e1e8ed" d="m 0,0 c 0,-5.522 -3.806,-10 -8.5,-10 -4.694,0 -8.5,4.478 -8.5,10 0,5.523 3.806,10 8.5,10 C -3.806,10 0,5.523 0,0" transform="translate(18 19)"/><path fill="#e1e8ed" d="m 0,0 c 0,-5.522 -3.806,-10 -8.5,-10 -4.694,0 -8.5,4.478 -8.5,10 0,5.523 3.806,10 8.5,10 C -3.806,10 0,5.523 0,0" transform="translate(37 19)"/><path fill="#292f33" d="m 0,0 c 0,-1.657 -1.343,-3 -3,-3 -1.657,0 -3,1.343 -3,3 0,1.657 1.343,3 3,3 1.657,0 3,-1.343 3,-3" transform="translate(9 15)"/><path fill="#292f33" d="m 0,0 c 0,-1.657 -1.344,-3 -3,-3 -1.656,0 -3,1.343 -3,3 0,1.657 1.344,3 3,3 1.656,0 3,-1.343 3,-3" transform="translate(28 15)"/></g></svg>